<svg xmlns="http://www.w3.org/2000/svg" xmlns:xlink="http://www.w3.org/1999/xlink" fill="none" height="41.520913" viewBox="0 0 69.768 41.52091255" width="69.768"><clipPath id="a"><path d="m.78125 0h150.24v40h-150.24z"/></clipPath><g clip-path="url(#a)" fill="#fff"><path d="m54.9174 29.0581h13.511v10.9417h-13.5165l-3.3611-3.2007v-4.5123z"/><path d="m30.7023 13.57h-8.2585v-2.7074h6.7444v-3.95176h-6.7444v-2.21413h8.2807v-4.204034h-13.8104v17.270224h13.7882z"/><path d="m44.832.492676v4.204034h4.5203v13.06619h5.4909v-13.06619h4.5148v-4.204034z"/><path d="m45.6509 25.4863-3.6218-5.8745h-5.5408l6.3949 11.1043v6.1659h5.5298v-6.1659l6.3949-11.1043h-5.5408z"/><path d="m12.9073 8.63095.2606-.09529c.1664-.07848.3661-.21861.6046-.4148.2329-.19619.4659-.42041.7044-.67825.2329-.25785.4381-.59978.6101-1.03139.1719-.43162.2551-.88005.2551-1.35651 0-1.24439-.5546-2.31502-1.6695-3.21748-1.1092-.896866-2.6289-1.350902-4.55352-1.350902h-8.341736v17.264572h8.829816c2.26294 0 6.94964-.426 6.94964-4.9383 0-3.44735-3.5719-4.15923-3.6495-4.19286m-6.60023-4.09193h2.03552c.41043 0 .74321.12332.99835.36435.26067.24103.38824.54372.38824.90246 0 .35875-.12757.65583-.38824.89687-.25514.24103-.59347.36435-.99835.36435h-2.03552zm3.80483 8.77239c-.31616.3027-.7155.4541-1.19803.4541h-2.60125v-3.0998h2.60125c.48253 0 .88187.1513 1.19803.4484.3161.2971.477.6615.477 1.0931s-.1609.7959-.477 1.1042z"/><path d="m17.3008 27.7464.2606-.0953c.1664-.0784.3661-.2186.5991-.4148.2329-.1961.4658-.426.7043-.6782.233-.2579.4382-.5998.6101-1.0314.172-.4316.2552-.88.2552-1.3565 0-1.2444-.5547-2.315-1.6695-3.2119-1.1093-.9024-2.629-1.3509-4.5535-1.3509h-8.3196v17.2646h8.8132c2.2629 0 6.9496-.426 6.9496-4.9383 0-3.453-3.5719-4.1592-3.6495-4.1929m-6.5891-4.0919h2.0189c.4104 0 .7432.1233.9983.3644.2607.241.3883.5437.3883.9024 0 .3588-.1276.6558-.3883.9025-.2607.241-.5935.3643-.9983.3643h-2.0189v-2.528zm3.7882 8.7724c-.3162.3027-.7155.4541-1.1981.4541h-2.5846v-3.0998h2.5846c.4826 0 .8819.1513 1.1981.4484.3161.2971.4769.6614.4769 1.0931 0 .4316-.1608.7959-.4769 1.1042z"/><path d="m38.5898 13.2952c-.2995.2635-.721.398-1.259.398s-1.0926-.1457-1.675-.4428-.9651-.5381-1.1647-.7175c-.1109-.1009-.2052-.1906-.2884-.2747l-3.2613 3.1278.2052.2074c.1997.2074.5047.4597.9152.7455.4104.2915.8929.5774 1.4365.8689.5435.2915 1.2257.5381 2.0355.7399.8153.2018 1.6528.3083 2.518.3083 2.1631 0 3.8825-.5662 5.1582-1.6984 1.2812-1.1323 1.919-2.4944 1.919-4.092 0-.9249-.183-1.732-.5546-2.4327-.3716-.69508-.832-1.22198-1.3811-1.57512-.5546-.35314-1.1481-.66704-1.7914-.95292-.588-.25784-1.1371-.44843-1.6473-.58296-.0499-.01121-.0999-.02802-.1498-.03923-.5491-.13453-1.0094-.30269-1.3755-.50449-.366-.20179-.5491-.43722-.5491-.70628 0-.3195.1276-.58296.3827-.79596.2552-.2074.6157-.3139 1.0871-.3139 1.1148 0 1.7971.50448 2.1465.87444l3.2723-3.13902-.061-.07287c-.1442-.18497-.3882-.39798-.7376-.6334-.3495-.23543-.7544-.47646-1.2202-.717493-.4659-.241031-1.0649-.44843-1.8137-.622197-.7432-.173767-1.5197-.25784766-2.3295-.25784766-2.0521 0-3.6994.54932766-4.9473 1.64237766-1.2535 1.09305-1.8747 2.38229-1.8747 3.8565 0 .78475.1386 1.49103.416 2.11884.2773.6278.6322 1.12668 1.0593 1.49103.4271.36995.9096.69506 1.4365.9753.4437.2355.8874.4316 1.3422.5886.0832.028.172.0617.2552.0897.538.1738 1.0205.3307 1.4531.482.4326.1458.7876.3083 1.0649.4765s.416.37.416.6054c0 .3755-.1497.7007-.4548.9641"/><path d="m30.7255 29.8697c0 1.1379-.9096 2.0683-2.041 2.074-1.137.0056-2.0688-.9249-2.0688-2.074v-10.2579h-5.5298v9.9944c0 4.12 3.3057 7.4608 7.3823 7.4608h.3438c4.0766 0 7.3878-3.3408 7.3878-7.4608v-9.9944h-5.4798v10.2579z"/><path d="m79.3047 19.646h3.5996v7.1581h7.177v-7.1581h3.5552v17.2309h-3.5552v-7.2085h-7.177v7.2085h-3.5996z"/><path d="m95.7142 30.7333v-.1906c0-3.9518 2.6956-6.5583 6.3178-6.5583 3.15 0 5.984 1.8778 5.984 6.4125v.8913h-9.0627c.1165 2.2421 1.2647 3.4977 3.2667 3.4977 1.647 0 2.479-.6726 2.696-1.8329h3.05c-.405 2.7018-2.529 4.1928-5.846 4.1928-3.7213 0-6.4169-2.4103-6.4169-6.4125zm9.1568-1.4967c-.116-2.0235-1.142-2.9652-2.839-2.9652-1.698 0-2.7459 1.1098-3.0288 2.9652z"/><path d="m108.992 33.5035c0-2.9148 2.718-3.6154 5.63-4.1199 1.547-.2635 2.263-.6727 2.263-1.5639 0-.8913-.572-1.4686-2.075-1.4686s-2.146.6726-2.263 1.8329h-3.078c.239-2.9148 2.574-4.1928 5.486-4.1928 2.911 0 5.13 1.2556 5.13 4.389v8.509h-3.123v-1.5639c-.765 1.037-1.858 1.833-3.793 1.833-2.263 0-4.171-1.1099-4.171-3.6379zm7.92-1.0594v-1.9787c-.332.3363-1.048.6278-2.24.8913-1.287.2634-2.502.7231-2.502 1.9507 0 .9136.527 1.5414 1.858 1.5414 1.648 0 2.884-.9136 2.884-2.4103z"/><path d="m122.566 19.1646h3.195v17.713h-3.195z"/><path d="m128.905 33.2399v-6.6031h-1.647v-2.3599h1.647v-2.7466h3.195v2.7466h2.673v2.3599h-2.673v6.3172c0 1.0595.499 1.5415 1.409 1.5415.526 0 .954-.0728 1.358-.2186v2.5336c-.499.1458-1.142.3139-2.052.3139-2.551 0-3.91-1.3733-3.91-3.8789z"/><path d="m136.566 19.1646h3.195v7.1356c.621-1.2556 2.002-2.315 4.055-2.315 2.479 0 4.22 1.4686 4.22 4.9159v7.9765h-3.194v-7.5897c0-1.7825-.716-2.629-2.313-2.629-1.598 0-2.768.9642-2.768 2.8924v7.3263h-3.195z"/><path d="m148.94 25.3696h-.405v-.1289h.96v.1289h-.4v1.1828h-.161v-1.1828zm.804-.1289h.222l.416 1.0314.411-1.0314h.221v1.3117h-.155v-1.1099l-.455 1.1099h-.055l-.455-1.1099v1.1099h-.144v-1.3117z"/></g></svg>