<svg xmlns="http://www.w3.org/2000/svg" xmlns:xlink="http://www.w3.org/1999/xlink" fill="none" height="30" viewBox="0 0 112 30" width="112"><clipPath id="a"><path d="m.444336 0h111.111v30h-111.111z"/></clipPath><g clip-path="url(#a)"><path d="m63.3889 10.1111c0-3.22224.0555-6.22224.2222-9.00002l-8.5 1.61112v.77777l.8333.11111c.6112.05556 1 .27778 1.2223.61111.2222.38889.3889.94445.5 1.77778.1111 1.61111.2222 5.27783.1666 11.05553 0 5.7223-.0555 9.3334-.1666 10.7222 3.0555.6667 5.4444.9445 7.2222.9445 3.3333 0 5.9444-.9445 7.8333-2.8889 1.8889-1.8889 2.8889-4.5555 2.8889-7.8333 0-2.6111-.7222-4.7778-2.1667-6.5-1.4444-1.72225-3.2777-2.55558-5.4444-2.55558-1.4445 0-2.9445.38889-4.6111 1.16668zm.1666 17.1111c-.1111-1.7778-.2222-7.1111-.2222-15.8333.5-.1667 1.1667-.2778 2-.2778 1.3334 0 2.3889.6667 3.1667 2.0555.7778 1.3889 1.1667 3.0556 1.1667 5.1667 0 2.6111-.4445 4.7222-1.3334 6.5-.8889 1.7222-2 2.6111-3.3889 2.6111-.4444-.1111-.8889-.1666-1.3889-.2222zm-40.3333-25.55556h-22.2222v1.11111l1.16667.11111c.88889.16667 1.5.5 1.88889 1 .38888.55556.61111 1.44445.66666 2.66667.44445 5.99997.44445 11.61107 0 16.77777-.11111 1.2222-.33333 2.1111-.66666 2.6667-.38889.5555-1 .8889-1.88889 1l-1.16667.1666v1.1112h14.3333v-1.1112l-1.5-.1111c-.366-.0306-.722-.135-1.0467-.3068-.3246-.1719-.6111-.4077-.8422-.6932-.3888-.5555-.6111-1.4444-.6666-2.6666-.1667-2.2223-.2778-4.7778-.2778-7.6111l3 .0555c1.6111.0556 2.7222 1.2778 3.2778 3.7222h1.1111v-9.0555h-1.1111c-.5556 2.3889-1.6111 3.6111-3.2778 3.6666l-3 .0556c0-5.00001.1111-8.55556.2778-10.72223h4.3889c3.1111 0 5.2222 2 6.4444 6l1.3333-.38889zm-2.6111 17.11116c0 2.8888.8333 5.2777 2.4445 7.1666 1.6111 1.8889 4 2.7778 7 2.7778s5.4444-.9445 7.2222-2.8889c1.7778-1.8889 2.6111-4.2778 2.6111-7.1667s-.8333-5.2777-2.4445-7.1666c-1.6111-1.88892-4-2.77781-7-2.77781s-5.4444.94445-7.2222 2.88891c-1.7778 1.8889-2.6111 4.2778-2.6111 7.1667zm12.3889-6.3334c.6667 1.6111.9444 3.7222.9444 6.2778 0 5.8889-1.2222 8.7778-3.6111 8.7778-1.2222 0-2.1666-.8334-2.8333-2.5-.6667-1.6667-.9444-3.7778-.9444-6.2778 0-5.8333 1.2222-8.72223 3.6111-8.72223 1.2222-.05555 2.1666.77783 2.8333 2.44443zm46.9444 13.5c1.8334 1.8334 4.1667 2.7778 6.9445 2.7778 1.7222 0 3.2222-.3333 4.5555-1.0556 1.3334-.6666 2.3889-1.5 3.1111-2.5l-.5555-.6666c-1.2222.9444-2.6111 1.3889-4.2222 1.3889-2.2223 0-3.9445-.7223-5.1111-2.2223-1.2223-1.5-1.7778-3.3889-1.6667-5.8333h11.8889c0-2.6667-.6667-4.8333-2.0556-6.5555-1.3889-1.66672-3.3333-2.50005-5.8333-2.50005-3.1111 0-5.5 1-7.2222 2.94445-1.7223 1.9444-2.5556 4.3333-2.5556 7.1667 0 2.8889.8889 5.2222 2.7222 7.0555zm4.1111-13.9444c.6112-1.3334 1.3889-2.00003 2.4445-2.00003 1.6667 0 2.5 2.11113 2.5 6.38893l-5.8889.1111c.0556-1.6667.3333-3.1667.9444-4.5zm25.7775-2.22225c-1.5-.66667-3.389-1.05556-5.666-1.05556-2.334 0-4.167.61112-5.5559 1.77781-1.3889 1.1666-2.1111 2.6111-2.1111 4.3333 0 1.5.4444 2.6667 1.2778 3.5.8333.8333 2.1666 1.5556 3.8892 2.1667 1.555.5555 2.666 1.1111 3.222 1.6111.555.5555.889 1.1667.889 2 0 .7778-.278 1.5-.889 2.0555-.556.6111-1.333.8889-2.333.8889-2.445 0-4.2782-1.7778-5.556-5.3333l-.9445.2778.2223 5.5555c2 .7778 4.2222 1.1667 6.6662 1.1667 2.556 0 4.5-.5556 5.945-1.7222 1.444-1.1111 2.167-2.7223 2.167-4.7223 0-1.3333-.334-2.4444-1.056-3.2777-.722-.8334-1.889-1.5556-3.556-2.2222-1.833-.6667-3.111-1.2778-3.777-1.8334-.667-.5555-1-1.2222-1-2.0555 0-.8334.222-1.5.722-2.0556.5-.5555 1.111-.7778 1.889-.7778 2.222 0 3.833 1.6111 4.833 4.7778l.945-.2778zm-53.4441-.5c-.7778-.38889-1.6111-.55556-2.5556-.55556-.9444 0-1.8889.38889-2.9444 1.16667-1.0556.77774-1.8333 1.83334-2.4445 3.27774l.0556-4.44441-8.4444 1.66671v.7777l.8333.0556c1.0555.1111 1.6667.9444 1.7778 2.4444.3333 3.4445.3333 7.1112 0 11-.1111 1.5-.7223 2.2778-1.7778 2.4445l-.8333.1111v1.0556h11.7777v-1.0556l-1.5-.1111c-1.0555-.1111-1.6666-.9445-1.7777-2.4445-.3334-3.2222-.3889-6.6666-.1112-10.2222.3334-.5555 1.0556-.8889 2.1667-1s2.3889.2222 3.7222 1z" fill="#fff"/></g></svg>