<?xml version="1.0" encoding="UTF-8"?>
<svg id="Layer_1" data-name="Layer 1" xmlns="http://www.w3.org/2000/svg" viewBox="0 0 1091.68 693.28">
  <defs>
    <style>
      .cls-1 {
        stroke: #fff;
        stroke-miterlimit: 10;
      }

      .cls-1, .cls-2, .cls-3 {
        fill: #fff;
      }

      .cls-3 {
        font-family: Emad-DianaeXtra-OutLine, 'TMTKT M+ Emad';
        font-size: 327.27px;
      }
    </style>
  </defs>
  <path class="cls-1" d="M233.9,662.39C-293.25,448.23,380.9,45.26,844.69,106.09,454.39,150.44-22.07,449.5,233.9,662.39Z"/>
  <path class="cls-1" d="M380.9,313.91c-195.15,224.29,126.72,381.42,665.28,261.04C468.33,803.04-71.49,654.78,380.9,313.91Z"/>
  <path class="cls-2" d="M790.48,76.63l7.78-28.71-23.17-18.65,29.71-1.47,10.58-27.8,10.58,27.8,29.71,1.47-23.17,18.65,7.78,28.71-24.9-16.27-24.9,16.27Z"/>
  <path class="cls-2" d="M415.65,99.91l9.83-36.29-29.29-23.58,37.55-1.86,13.38-35.14,13.38,35.14,37.55,1.86-29.29,23.58,9.83,36.29-31.48-20.57-31.48,20.57Z"/>
  <path class="cls-2" d="M29.65,241.32l14.99-55.31L0,150.06l57.24-2.84,20.39-53.56,20.39,53.56,57.24,2.84-44.64,35.94,14.99,55.31-47.98-31.34-47.98,31.34Z"/>
  <text class="cls-3" transform="translate(407.04 530.63)"><tspan x="0" y="0">iPTP</tspan></text>
</svg>