<?xml version="1.0" encoding="UTF-8"?>
<svg id="Layer_1" data-name="Layer 1" xmlns="http://www.w3.org/2000/svg" viewBox="0 0 1092.3 62.31">
  <defs>
    <style>
      .cls-1 {
        fill: #fff;
      }
    </style>
  </defs>
  <path class="cls-1" d="M20.3,53.94c0,2.82.2,5.45,1.22,8.37H0c1.01-2.92,1.22-5.55,1.22-8.37V8.37C1.22,5.55,1.01,2.92,0,0h51.45c8.12,0,12.89,3.89,12.89,12.07v12.66c0,5.55-2.33,9.35-10.05,10.42l8.42,20.54c1.12,2.63,2.64,4.87,4.67,6.62h-21.72l-11.16-27.46h-14.21v19.08ZM20.3,26.87h22.23c2.44,0,3.35-1.07,3.35-4.19v-10.52c0-3.12-.91-4.19-3.35-4.19h-22.23v18.89Z"/>
  <path class="cls-1" d="M109.3,0c-1.02,2.92-1.22,5.55-1.22,8.37v45.57c0,2.82.2,5.45,1.22,8.37h-21.52c1.01-2.92,1.22-5.55,1.22-8.37V8.37c0-2.82-.2-5.45-1.22-8.37h21.52Z"/>
  <path class="cls-1" d="M145.23,62.31c-8.42,0-12.99-3.99-12.99-12.66V12.66c0-8.67,4.57-12.66,12.99-12.66h37.75l1.62,9.44c-3.04-1.27-7.21-1.46-10.05-1.46h-19.59c-2.74,0-3.65.88-3.65,3.7v38.95c0,2.82.91,3.7,3.65,3.7h19.59c2.84,0,7-.19,10.05-1.46l-1.62,9.44h-37.75Z"/>
  <path class="cls-1" d="M223.07,34.86v19.08c0,2.82.2,5.45,1.22,8.37h-21.52c1.02-2.92,1.22-5.55,1.22-8.37V8.37c0-2.82-.2-5.45-1.22-8.37h21.52c-1.01,2.92-1.22,5.55-1.22,8.37v18.5h25.68V8.37c0-2.82-.2-5.45-1.22-8.37h21.52c-1.01,2.92-1.22,5.55-1.22,8.37v45.57c0,2.82.2,5.45,1.22,8.37h-21.52c1.02-2.92,1.22-5.55,1.22-8.37v-19.08h-25.68Z"/>
  <path class="cls-1" d="M302.84,44.59l-4.16,9.35c-1.01,2.34-1.73,5.16-1.73,8.37h-12.48c2.44-3.21,4.36-6.52,6.9-11.98l21.62-46.25-2.74-4.09h21.21l23.95,50.53c2.74,5.84,4.67,9.83,6.9,11.78h-23.95c.1-.39.2-.88.2-1.46,0-1.95-.81-4.67-2.74-8.86l-3.45-7.4h-29.53ZM328.61,36.61l-11.06-23.56-10.86,23.56h21.92Z"/>
  <path class="cls-1" d="M397.42,53.94c0,2.82.2,5.45,1.22,8.37h-21.52c1.01-2.92,1.22-5.55,1.22-8.37V8.37c0-2.82-.2-5.45-1.22-8.37h51.45c8.12,0,12.89,3.89,12.89,12.07v12.66c0,5.55-2.33,9.35-10.05,10.42l8.42,20.54c1.12,2.63,2.64,4.87,4.67,6.62h-21.72l-11.16-27.46h-14.21v19.08ZM397.42,26.87h22.23c2.44,0,3.35-1.07,3.35-4.19v-10.52c0-3.12-.91-4.19-3.35-4.19h-22.23v18.89Z"/>
  <path class="cls-1" d="M463.29,8.37c0-2.82-.2-5.45-1.22-8.37h52.57c8.42,0,12.99,3.99,12.99,12.66v37c0,8.67-4.57,12.66-12.99,12.66h-52.57c1.01-2.92,1.22-5.55,1.22-8.37V8.37ZM482.37,54.33h22.53c2.74,0,3.65-.88,3.65-3.7V11.68c0-2.82-.91-3.7-3.65-3.7h-22.53v46.35Z"/>
  <path class="cls-1" d="M585.88,44.59l-4.16,9.35c-1.01,2.34-1.72,5.16-1.72,8.37h-12.48c2.44-3.21,4.36-6.52,6.9-11.98l21.62-46.25-2.74-4.09h21.21l23.95,50.53c2.74,5.84,4.67,9.83,6.9,11.78h-23.95c.1-.39.2-.88.2-1.46,0-1.95-.81-4.67-2.74-8.86l-3.45-7.4h-29.53ZM611.66,36.61l-11.06-23.56-10.86,23.56h21.92Z"/>
  <path class="cls-1" d="M680.47,53.94c0,2.82.2,5.45,1.22,8.37h-21.51c1.01-2.92,1.22-5.55,1.22-8.37V8.37c0-2.82-.2-5.45-1.22-8.37h51.45c8.12,0,12.89,3.89,12.89,12.07v12.66c0,5.55-2.33,9.35-10.05,10.42l8.42,20.54c1.12,2.63,2.64,4.87,4.67,6.62h-21.72l-11.16-27.46h-14.21v19.08ZM680.47,26.87h22.23c2.44,0,3.35-1.07,3.35-4.19v-10.52c0-3.12-.91-4.19-3.35-4.19h-22.23v18.89Z"/>
  <path class="cls-1" d="M790.28,45.28L809.15,0h24.26c-1.02,2.92-1.22,5.55-1.22,8.37v45.57c0,2.82.2,5.45,1.22,8.37h-20.91c1.01-2.92,1.22-5.55,1.22-8.37V8.96h-.2l-22.23,53.36h-13.19l-21.82-53.36h-.2v44.98c0,2.82.2,5.45,1.22,8.37h-11.16c1.01-2.92,1.22-5.55,1.22-8.37V8.37c0-2.82-.2-5.45-1.22-8.37h25.57l18.57,45.28Z"/>
  <path class="cls-1" d="M867.41,62.31c-8.42,0-12.99-3.99-12.99-12.66V12.66c0-8.67,4.57-12.66,12.99-12.66h38.36c8.42,0,12.99,3.99,12.99,12.66v37c0,8.67-4.57,12.66-12.99,12.66h-38.36ZM896.03,54.33c2.74,0,3.65-.88,3.65-3.7V11.68c0-2.82-.91-3.7-3.65-3.7h-18.88c-2.74,0-3.65.88-3.65,3.7v38.95c0,2.82.91,3.7,3.65,3.7h18.88Z"/>
  <path class="cls-1" d="M960.88,0c-1.01,2.92-1.22,5.55-1.22,8.37v43.33c0,1.75.91,2.63,2.94,2.63h29.43c2.03,0,2.94-.88,2.94-2.63V8.37c0-2.82-.2-5.45-1.22-8.37h11.16c-1.02,2.92-1.22,5.55-1.22,8.37v43.23c0,6.04-5.28,10.71-11.77,10.71h-39.58c-6.5,0-11.77-4.67-11.77-10.71V8.37c0-2.82-.2-5.45-1.22-8.37h21.51Z"/>
  <path class="cls-1" d="M1045.21,53.94c0,2.82.2,5.45,1.22,8.37h-21.51c1.01-2.92,1.22-5.55,1.22-8.37V8.37c0-2.82-.2-5.45-1.22-8.37h51.45c8.12,0,12.89,3.89,12.89,12.07v12.66c0,5.55-2.33,9.35-10.05,10.42l8.42,20.54c1.12,2.63,2.64,4.87,4.67,6.62h-21.72l-11.16-27.46h-14.21v19.08ZM1045.21,26.87h22.23c2.44,0,3.35-1.07,3.35-4.19v-10.52c0-3.12-.91-4.19-3.35-4.19h-22.23v18.89Z"/>
</svg>