<svg xmlns="http://www.w3.org/2000/svg" xmlns:xlink="http://www.w3.org/1999/xlink" viewBox="0 0 253.15 386.08"><defs><style>.cls-1{fill:#fff;}.cls-2{fill:url(#linear-gradient);}.cls-3{fill:url(#linear-gradient-2);}.cls-4{fill:url(#linear-gradient-3);}.cls-5{fill:url(#linear-gradient-4);}.cls-6{fill:url(#linear-gradient-5);}</style><linearGradient id="linear-gradient" x1="127.97" y1="88.15" x2="225.07" y2="35.14" gradientUnits="userSpaceOnUse"><stop offset="0" stop-color="#fff"/><stop offset="0.37" stop-color="#fdfdfd"/><stop offset="0.51" stop-color="#f7f7f6"/><stop offset="0.6" stop-color="#ecebeb"/><stop offset="0.68" stop-color="#dcdbda"/><stop offset="0.75" stop-color="#c8c6c4"/><stop offset="0.8" stop-color="#aeaca8"/><stop offset="0.86" stop-color="#908d88"/><stop offset="0.91" stop-color="#6d6962"/><stop offset="0.95" stop-color="#444037"/><stop offset="0.99" stop-color="#1a1409"/><stop offset="1" stop-color="#110b00"/></linearGradient><linearGradient id="linear-gradient-2" x1="22.94" y1="114.77" x2="146.54" y2="92.58" xlink:href="#linear-gradient"/><linearGradient id="linear-gradient-3" x1="118.39" y1="165.31" x2="117.02" y2="144.82" xlink:href="#linear-gradient"/><linearGradient id="linear-gradient-4" x1="208.88" y1="369.26" x2="68.54" y2="222.75" xlink:href="#linear-gradient"/><linearGradient id="linear-gradient-5" x1="160.07" y1="163.45" x2="213.3" y2="231.12" xlink:href="#linear-gradient"/></defs><g id="Layer_2" data-name="Layer 2"><g id="Layer_1-2" data-name="Layer 1"><polygon class="cls-1" points="125.63 371.31 125.65 371.34 124.21 372.78 122.78 374.22 110.92 386.08 96.16 371.31 110.92 356.56 124.21 369.85 125.65 371.29 125.63 371.31"/><polygon class="cls-1" points="155.14 371.31 144 382.46 140.38 386.08 128.53 374.22 127.09 372.78 127.09 372.78 125.65 371.34 125.63 371.31 125.65 371.29 127.09 369.85 128.53 368.42 140.38 356.56 155.14 371.31"/><path class="cls-1" d="M125.65,371.29l0,0,0,0,0,0Zm0,0,0,0,0,0,0,0Zm0,0,0,0,0,0,0,0Zm0,0,0,0,0,0,0,0Zm0,0,0,0,0,0,0,0Zm0,0,0,0,0,0,0,0Zm0,0,0,0,0,0,0,0Zm0,0,0,0,0,0,0,0Zm0,0,0,0,0,0,0,0Zm0,0,0,0,0,0,0,0Zm0,0,0,0,0,0,0,0Zm0,0,0,0,0,0,0,0Zm0,0,0,0,0,0,0,0Zm0,0,0,0,0,0,0,0Zm0,0,0,0,0,0,0,0Zm0,0,0,0,0,0,0,0Zm0,0,0,0,0,0,0,0Z"/><path class="cls-1" d="M253.15,218.91c-2.39,11.16-5.81,16.74-10.31,16.74h-1.58q-4.94,0-6.91-5.69a24.73,24.73,0,0,1-.41-3.79v-4.66q0-13.81,11.88-31.6h.79q-7.71,21.41-7.72,27.28,0,9,5.15,9c2.51,0,5.21-2.66,8.11-7.94h.39Z"/><path class="cls-1" d="M106.37,255.64a2.59,2.59,0,0,1-1.45,1.54,2.36,2.36,0,0,1-.94.19,2.91,2.91,0,0,1-2.48-1.45,2.27,2.27,0,0,0-1.13-.89l-.07,0a1.27,1.27,0,0,0-.47-.09.86.86,0,0,0-.32.05q-2.92,1.07-5.77,15.26a15,15,0,0,1-1,3.08c-1.09,2.39-1.92,3.59-2.52,3.59s-.91-1.25-1.33-3.75a12.77,12.77,0,0,0-.76-2.7q-2.92-7.17-5.21-9.65a.67.67,0,0,0-.49-.21h0a1.65,1.65,0,0,0-.91.28l-.25.17a2.36,2.36,0,0,1-1.31.41,7.93,7.93,0,0,1-2.63-1,8,8,0,0,1-2.46-2.4,3.11,3.11,0,0,1-.39-.92,1.53,1.53,0,0,1,0-.52A6.23,6.23,0,0,1,76,253a6,6,0,0,1,1.79-1.34,2.75,2.75,0,0,1,1.2-.28c5.43,0,9.53,5.78,12.28,16.7,0,0,5.91-19.51,10.26-19.51a2.44,2.44,0,0,1,.66.09,4.88,4.88,0,0,1,2.25,1.45,8.63,8.63,0,0,1,1.62,2.07,4.22,4.22,0,0,1,.4,1.18A4.51,4.51,0,0,1,106.37,255.64Z"/><path class="cls-1" d="M120,55.79a40.57,40.57,0,0,1-1.7,5.07q-3.36,8-8.8,8h-2q-7.23-.83-7.22-8.92v-.83q0-6.9,8.92-22l.62-1a29.54,29.54,0,0,0,1-5.94V28.19q0-9.4-12.8-18.89C96.46,8.18,94.82,7.07,93.05,6V5.59a33.43,33.43,0,0,1,2.48-3.14A19.29,19.29,0,0,1,98.1,0h.54q17.58,8.93,17.58,24.62v1.66q0,5.68-5,15.81-2.12,4.29-5.12,9.41l-.82,3.57q0,6.78,5.45,6.78c2,0,4.17-1.36,6.5-4.07.5-.6,1-1.26,1.55-2Z"/><path class="cls-2" d="M191.58,34.49Q161,42.11,125.43,72.29s2.88,19.49-17.3,44.77q10.07-9.54,20.13-19.14,43.52-38.53,77.28-38.54a36,36,0,0,1,13.22,2.29Z"/><path class="cls-3" d="M108.13,117.06h0q-14.28,13.56-28.57,27-21.1,18.71-39.61,18.7-15.91,0-27.6-12.18Q0,137.87,0,119.45T12.08,75.19L24.48,62.8Q22,69.12,18.18,78.23,7.79,102.74,7.79,116.9q0,10.77,5.85,17.29,6.16,7.06,17.21,7.08,17.2,0,40.26-18.42,2.6-2,40.59-38.25,7-6.55,13.73-12.31S128.31,91.78,108.13,117.06Z"/><path class="cls-4" d="M128.11,209.67q-4.59-55.14-4.59-55.89c0-.84.09-1.35.29-1.51s.39,0,.69.28c-.75-.94-6.29-7.55-12.33-6.2,0,.54,0,1.1,0,1.66q0,7.63,5.13,70.69t5.12,71.83a118.29,118.29,0,0,1-1.07,17c-.42,3.48-.49,5.77-.21,6.89s.71.75,1.71-.74q.86-1.5,2.56-4.66,7.26-16,7.26-37.26Q132.7,264.81,128.11,209.67Z"/><path class="cls-1" d="M133.55,157.51q0,3.92-9-4.85l-.09-.11c-.75-.94-6.29-7.55-12.33-6.2A27.23,27.23,0,0,0,109,133.66q0-3.16,5.77-15.09c.56-1,1-1.49,1.28-1.49s.92.5,1.49,1.49q1.71,3.18,7.69,17.14,6.4,14.53,7.47,17.89A13.87,13.87,0,0,1,133.55,157.51Z"/><path class="cls-5" d="M238,270q0,17.46-15.64,29.91-25.23,19.85-63.06,35.4Q118.74,351.57,90,351.57q-31.81,0-47.71-17.94A49.45,49.45,0,0,1,35.16,323l0,0c13-6.34,28.64-.36,29.61,0l0,0q12,5.37,29,5.38,24.12,0,57.85-12.21a376.19,376.19,0,0,0,51.82-23Q226,281,226,278.12q0-3.58-12.89-6.46-13.44-2.87-26.87-5.5-16.72-3.35-24.41-7.42-7.47-4-10-10.17c20.7,1.55,28.12-8.16,28.12-8.16q8.42,2.44,20.52,4.69,22.75,4.31,30.16,9.09T238,270Z"/><path class="cls-6" d="M236.66,172.13q0,8.37-3.3,13.4-2.75,4.07-4.38,4.07c-.74,0-1.74-1.36-3-4.07q-3.57-7.41-10.7-7.42-11.5,0-31.25,18.42a134,134,0,0,0-16.45,18.91q-6.87,9.56-6.86,12.92,0,6.48,19.24,12s-7.42,9.71-28.12,8.16a18.07,18.07,0,0,1-1.26-6.82q0-21,15.9-44.5a127.35,127.35,0,0,1,28.79-30.51q16.17-12.08,26.05-12.08a13.72,13.72,0,0,1,11.1,5.15A18.7,18.7,0,0,1,236.66,172.13Z"/><path class="cls-1" d="M56.68,220.76q-2.09,9.81-6,9.8h-.92a3.91,3.91,0,0,1-1.87-.44,4.84,4.84,0,0,1-2.18-2.89,14.18,14.18,0,0,1-.24-2.22v-2.72q0-8.1,7-18.5h.46q-4.52,12.54-4.52,16,0,5.25,3,5.25a.86.86,0,0,0,.22,0c1.37-.13,2.84-1.61,4.42-4.42a1.19,1.19,0,0,1,.42-.11Z"/><path class="cls-1" d="M49.1,311.37Q37.85,298.46,37.86,280q0-21,16.45-51.92,2.74-4.79,2.74-6.7a1,1,0,0,0-.55-1h-.09a1.19,1.19,0,0,0-.42.11c-1,.4-2.47,1.88-4.42,4.42-.35.45-.71.93-1.09,1.45-.9,1.21-1.78,2.44-2.62,3.68q-18.78,27.5-18.78,64,0,16.55,6.06,28.8c13-6.34,28.64-.37,29.61,0A44.13,44.13,0,0,1,49.1,311.37Z"/><path class="cls-1" d="M135.89,115.81a2,2,0,0,1,1.09.44,11.63,11.63,0,0,1,.93.78,3.87,3.87,0,0,1,.4.41,35.17,35.17,0,0,1,6.75,11.19,23.1,23.1,0,0,1,1.34,8.07,30.13,30.13,0,0,1-.43,5.19,17.66,17.66,0,0,1-1,3.5,9.89,9.89,0,0,1-.54,1.08,1.83,1.83,0,0,1-.49.51.33.33,0,0,1-.54-.22,4.7,4.7,0,0,1,.05-1c.13-.7.3-1.4.42-2.1a20.7,20.7,0,0,0,.37-3.33,18.58,18.58,0,0,0-1.65-7.84,29.14,29.14,0,0,0-4.23-6.77,46.35,46.35,0,0,0-3.28-3.59c-.13-.13-.26-.27-.41-.4a.69.69,0,0,1-.24-.7,10.87,10.87,0,0,1,.22-1.27c.26-1.06.54-2.12.82-3.18A1.54,1.54,0,0,1,135.89,115.81Z"/></g></g></svg>