<svg xmlns:xlink="http://www.w3.org/1999/xlink" xmlns="http://www.w3.org/2000/svg" class="icon icon-stars " aria-hidden="true" role="img" width="168"  height="30" ><defs><symbol fill="none" viewBox="0 0 168 30" id="stars" xmlns="http://www.w3.org/2000/svg"><path d="M10.456 18.842l.143-.37-.329-.224-8.112-5.506H12.5l.114-.341 3.368-10.057 2.988 10.04.106.358H29.43l-8.112 5.506-.306.208.109.354 2.997 9.697-8.245-5.97-.287-.207-.291.201-8.551 5.922 3.713-9.61zm34.074 0l.143-.37-.328-.224-8.113-5.506h10.341l.115-.341 3.367-10.057 2.988 10.04.106.358h10.354l-8.112 5.506-.306.208.11.354 2.996 9.697-8.245-5.97-.287-.207-.29.201-8.552 5.922 3.713-9.61zm34.074 0l.144-.37-.33-.224-8.111-5.506h10.34l.115-.341 3.367-10.057 2.988 10.04.106.358h10.354l-8.112 5.506-.306.208.11.354 2.996 9.697-8.245-5.97-.287-.207-.29.201-8.552 5.922 3.713-9.61zm34.075 0l.143-.37-.329-.224-8.112-5.506h10.341l.114-.341 3.367-10.057 2.988 10.04.107.358h10.354l-8.113 5.506-.306.208.11.354 2.997 9.697-8.246-5.97-.286-.207-.291.201-8.551 5.922 3.713-9.61zm34.074 0l.143-.37-.329-.224-8.112-5.506h10.341l.114-.341 3.367-10.057 2.989 10.04.106.358h10.354l-8.112 5.506-.307.208.11.354 2.997 9.697-8.245-5.97-.287-.207-.291.201-8.551 5.922 3.713-9.61z" fill="#ECC80D" stroke="#D8B400"></path></symbol></defs><use xlink:href="#stars"></use></svg>